<?xml version="1.0" encoding="UTF-8" standalone="no"?>
<!-- Created with Inkscape (http://www.inkscape.org/) -->

<svg
   xmlns:dc="http://purl.org/dc/elements/1.1/"
   xmlns:cc="http://creativecommons.org/ns#"
   xmlns:rdf="http://www.w3.org/1999/02/22-rdf-syntax-ns#"
   xmlns:svg="http://www.w3.org/2000/svg"
   xmlns="http://www.w3.org/2000/svg"
   xmlns:sodipodi="http://sodipodi.sourceforge.net/DTD/sodipodi-0.dtd"
   xmlns:inkscape="http://www.inkscape.org/namespaces/inkscape"
   width="1366"
   height="768"
   viewBox="0 0 361.42082 203.2"
   version="1.1"
   id="svg8"
   inkscape:version="0.92.3 (2405546, 2018-03-11)"
   sodipodi:docname="scene.svg">
  <defs
     id="defs2" />
  <sodipodi:namedview
     id="base"
     pagecolor="#ffffff"
     bordercolor="#666666"
     borderopacity="1.0"
     inkscape:pageopacity="0.0"
     inkscape:pageshadow="2"
     inkscape:zoom="0.70710678"
     inkscape:cx="290.00075"
     inkscape:cy="386.38641"
     inkscape:document-units="mm"
     inkscape:current-layer="layer8"
     showgrid="true"
     units="px"
     inkscape:window-width="1861"
     inkscape:window-height="1025"
     inkscape:window-x="59"
     inkscape:window-y="27"
     inkscape:window-maximized="1"
     showguides="true"
     inkscape:guide-bbox="true"
     inkscape:lockguides="false">
    <inkscape:grid
       type="xygrid"
       id="grid815" />
    <sodipodi:guide
       position="-68.791665,42.333333"
       orientation="0,1"
       id="guide1409"
       inkscape:locked="false" />
    <sodipodi:guide
       position="179.91666,105.83333"
       orientation="1,0"
       id="guide1412"
       inkscape:locked="false" />
  </sodipodi:namedview>
  <metadata
     id="metadata5">
    <rdf:RDF>
      <cc:Work
         rdf:about="">
        <dc:format>image/svg+xml</dc:format>
        <dc:type
           rdf:resource="http://purl.org/dc/dcmitype/StillImage" />
        <dc:title />
      </cc:Work>
    </rdf:RDF>
  </metadata>
  <g
     inkscape:label="Layer 1"
     inkscape:groupmode="layer"
     id="layer1"
     transform="translate(0,-93.79997)"
     style="display:none" />
  <g
     inkscape:groupmode="layer"
     id="layer3"
     inkscape:label="[export] moon-bg"
     style="display:inline">
    <rect
       style="opacity:1;fill:#3b4fab;fill-opacity:1;stroke:#2d3c81;stroke-width:0.5;stroke-miterlimit:4;stroke-dasharray:none;stroke-dashoffset:0;stroke-opacity:1"
       id="rect1453"
       width="375.70834"
       height="216.95833"
       x="-5.2916665"
       y="-3.175" />
    <path
       style="opacity:1;vector-effect:none;fill:#5266c3;fill-opacity:1;stroke:#2d3c81;stroke-width:0.5;stroke-linecap:butt;stroke-linejoin:miter;stroke-miterlimit:4;stroke-dasharray:none;stroke-dashoffset:0;stroke-opacity:1"
       d="m -15.875,155.575 c 202.52995,-37.04166 402.16666,0 402.16666,0 v 47.62501 H -15.875 Z"
       id="path1407"
       inkscape:connector-curvature="0"
       sodipodi:nodetypes="ccccc" />
    <circle
       style="opacity:1;fill:#8f9bda;fill-opacity:1;stroke:#2d3c81;stroke-width:0.5;stroke-miterlimit:4;stroke-dasharray:none;stroke-dashoffset:0;stroke-opacity:1"
       id="path1451"
       cx="140.22917"
       cy="47.095833"
       r="18.520834" />
    <path
       style="opacity:1;fill:#5266c3;fill-opacity:1;stroke:#2d3c81;stroke-width:0.5;stroke-miterlimit:4;stroke-dasharray:none;stroke-dashoffset:0;stroke-opacity:1"
       d="m 143.80104,28.843716 a 18.520834,18.520834 0 0 1 9.12812,15.939079 18.520834,18.520834 0 0 1 -18.52083,18.520833 18.520834,18.520834 0 0 1 -3.43958,-0.332795 18.520834,18.520834 0 0 0 9.39271,2.581754 18.520834,18.520834 0 0 0 18.52083,-18.520833 18.520834,18.520834 0 0 0 -15.08125,-18.188038 z"
       id="circle1512"
       inkscape:connector-curvature="0" />
  </g>
  <g
     inkscape:groupmode="layer"
     id="layer8"
     inkscape:label="[export] moon-mountains-bg">
    <path
       style="opacity:1;vector-effect:none;fill:#5266c3;fill-opacity:1;stroke:#2d3c81;stroke-width:0.5;stroke-linecap:butt;stroke-linejoin:miter;stroke-miterlimit:4;stroke-dasharray:none;stroke-dashoffset:0;stroke-opacity:1"
       d="m -29.104166,158.22083 21.1666664,-26.45833 10.583333,5.29167 10.5833336,10.58333 10.583333,-5.29167 10.583334,10.58334 10.583333,-10.58334 15.875,-5.29166 5.291666,-5.29167 10.583333,5.29167 5.291667,5.29166 15.875,5.29167 15.875007,5.29167 15.875,-5.29167 10.58333,5.29167 10.58333,-5.29167 5.29167,-10.58333 10.58333,-5.29167 15.875,5.29167 10.58334,-5.29167 15.875,5.29167 15.875,-10.58334 h 10.58333 l 10.58333,5.29167 10.58334,15.875 10.58333,5.29167 h 10.58333 l 10.58334,-5.29167 10.58333,-10.58333 15.875,-5.29167 10.58333,5.29167 10.58334,5.29166 15.875,-5.29166 21.16666,-10.58334 15.875,10.58334 10.58334,15.875 V 211.1375 H -29.104166 Z"
       id="path1522"
       inkscape:connector-curvature="0"
       sodipodi:nodetypes="ccccccccccccccccccccccccccccccccccccccc" />
    <path
       style="opacity:1;vector-effect:none;fill:#6476c9;fill-opacity:1;stroke:#2d3c81;stroke-width:0.5;stroke-linecap:butt;stroke-linejoin:miter;stroke-miterlimit:4;stroke-dasharray:none;stroke-dashoffset:0;stroke-opacity:1"
       d="m 209.02083,137.05416 -10.58333,7.9375 5.29166,10.58334 15.875,2.64583 13.22917,-2.64583 2.64583,-5.29167 -2.64583,-7.9375 -5.29167,-7.9375 v -5.29166 l 7.9375,-2.64584 h -10.58333 z"
       id="path852"
       inkscape:connector-curvature="0" />
    <path
       style="opacity:1;vector-effect:none;fill:#6476c9;fill-opacity:1;stroke:#2d3c81;stroke-width:0.5;stroke-linecap:butt;stroke-linejoin:miter;stroke-miterlimit:4;stroke-dasharray:none;stroke-dashoffset:0;stroke-opacity:1"
       d="m 66.145832,131.7625 -1.322916,6.61458 -6.614583,3.96875 -2.645834,5.29167 2.645834,7.9375 11.906249,2.64583 -6.614583,3.96875 h -15.875 l -14.552083,-5.29167 1.322917,-3.96875 10.583333,-10.58333 15.875,-5.29167 z"
       id="path854"
       inkscape:connector-curvature="0" />
  </g>
  <g
     inkscape:groupmode="layer"
     id="layer4"
     inkscape:label="[export] moon-mountains"
     style="display:inline">
    <path
       style="opacity:1;vector-effect:none;fill:#6476c9;fill-opacity:1;stroke:#2d3c81;stroke-width:0.5;stroke-linecap:butt;stroke-linejoin:miter;stroke-miterlimit:4;stroke-dasharray:none;stroke-dashoffset:0;stroke-opacity:1"
       d="m -50.270834,179.3875 26.458329,-21.16667 10.58334,-15.87499 15.8750006,5.29166 10.5833304,10.58333 21.166669,5.29167 31.75001,5.29167 21.166661,-5.29167 15.875004,-15.875 10.5833,-5.29166 5.29169,-5.29167 31.75,-5.29167 26.45831,10.58334 21.16669,5.29166 26.45831,-5.29166 21.16669,5.29166 15.875,10.58333 26.45834,10.58334 h 21.16666 l 21.16667,-10.58334 10.58333,-15.87499 10.58334,-5.29167 15.875,10.58333 21.16666,10.58333 26.45834,5.29167 15.875,-10.58333 26.4583,-5.29167 v 74.08333 l -539.749967,1e-5 -7e-6,-37.04167 z"
       id="path1416"
       inkscape:connector-curvature="0"
       sodipodi:nodetypes="ccccccccccccccccccccccccccccccc" />
    <path
       style="opacity:1;vector-effect:none;fill:#7282ce;fill-opacity:1;stroke:#2d3c81;stroke-width:0.5;stroke-linecap:butt;stroke-linejoin:miter;stroke-miterlimit:4;stroke-dasharray:none;stroke-dashoffset:0;stroke-opacity:1"
       d="m 68.791666,168.80416 29.104166,5.29167 23.812498,-5.29167 10.58333,-7.9375 -2.64583,-15.875 -10.58333,-7.9375 -5.29167,5.29167 -10.58333,5.29167 -15.875001,15.875 z"
       id="path865"
       inkscape:connector-curvature="0" />
    <path
       style="opacity:1;vector-effect:none;fill:#7282ce;fill-opacity:1;stroke:#2d3c81;stroke-width:0.5;stroke-linecap:butt;stroke-linejoin:miter;stroke-miterlimit:4;stroke-dasharray:none;stroke-dashoffset:0;stroke-opacity:1"
       d="M 198.4375,147.6375 177.27083,160.86666 148.16666,171.45 174.625,174.09583 206.375,171.45 232.83333,166.15833 254,163.5125 l -21.16667,-7.9375 -7.9375,-13.22917 z"
       id="path867"
       inkscape:connector-curvature="0" />
  </g>
  <g
     inkscape:groupmode="layer"
     id="layer5"
     inkscape:label="[export] moon-landing"
     style="display:inline">
    <path
       style="opacity:1;vector-effect:none;fill:#7282ce;fill-opacity:1;stroke:#2d3c81;stroke-width:0.5;stroke-linecap:butt;stroke-linejoin:miter;stroke-miterlimit:4;stroke-dasharray:none;stroke-dashoffset:0;stroke-opacity:1"
       d="m -185.20833,166.15832 63.5,21.16667 47.624995,-15.875 52.916666,10.58333 63.499999,-15.875 52.916666,10.58334 H 243.41666 l 37.04167,-15.875 42.33333,21.16666 47.625,-10.58333 37.04167,5.29167 63.5,-26.45833 52.91666,21.16666 v 63.5 h -709.08332 z"
       id="path1486"
       inkscape:connector-curvature="0" />
    <path
       style="display:inline;opacity:1;vector-effect:none;fill:#8f9bda;fill-opacity:1;stroke:#2d3c81;stroke-width:0.5;stroke-linecap:butt;stroke-linejoin:miter;stroke-miterlimit:4;stroke-dasharray:none;stroke-dashoffset:0;stroke-opacity:1"
       d="m 173.30208,172.77291 h 11.90625 v 1.32292 l 1.32292,1.32292 v 1.32291 h -14.55209 v -1.32291 l 1.32292,-1.32292 z"
       id="path1519"
       inkscape:connector-curvature="0" />
  </g>
  <g
     inkscape:groupmode="layer"
     id="layer7"
     inkscape:label="[export] moon-foreground"
     style="display:inline">
    <path
       style="opacity:1;vector-effect:none;fill:#8f9bda;fill-opacity:1;stroke:#2d3c81;stroke-width:0.5;stroke-linecap:butt;stroke-linejoin:miter;stroke-miterlimit:4;stroke-dasharray:none;stroke-dashoffset:0;stroke-opacity:1"
       d="m -243.41666,182.03333 63.5,-5.29167 95.25,15.875 164.04166,-10.58333 63.5,5.29167 164.04168,-5.29167 105.83333,10.58333 68.79167,-10.58333 84.66666,5.29167 95.25,-10.58334 v 68.79166 h -904.875 z"
       id="path1494"
       inkscape:connector-curvature="0" />
  </g>
  <g
     inkscape:groupmode="layer"
     id="layer2"
     inkscape:label="[export] rocket"
     style="display:inline">
    <g
       id="g1405"
       transform="matrix(0.38888886,0,0,0.38888886,119.65047,80.742017)"
       style="fill:#8f9bda;fill-opacity:1;stroke:#2d3c81;stroke-width:2.57142878;stroke-opacity:1">
      <g
         id="g850"
         transform="translate(182.5625,-191.6958)"
         style="fill:#8f9bda;fill-opacity:1;stroke:#2d3c81;stroke-width:2.57142878;stroke-opacity:1">
        <path
           style="opacity:1;vector-effect:none;fill:#8f9bda;fill-opacity:1;stroke:#2d3c81;stroke-width:1.28571439;stroke-linecap:butt;stroke-linejoin:miter;stroke-miterlimit:4;stroke-dasharray:none;stroke-dashoffset:0;stroke-opacity:1"
           d="M 3.96875,295.67705 H 6.6145833 C 5.2916667,289.06247 7.9375,282.44789 11.90625,282.44789 c 6.614583,9.26042 3.96875,-9.26042 -1.322917,-7.9375 -6.614583,0 -14.552083,6.61458 -6.614583,21.16666 z"
           id="path838"
           inkscape:connector-curvature="0"
           sodipodi:nodetypes="ccccc" />
        <path
           sodipodi:nodetypes="ccccc"
           inkscape:connector-curvature="0"
           id="path846"
           d="M 22.489583,295.67705 H 19.84375 c 1.322917,-6.61458 -1.322917,-13.22916 -5.291667,-13.22916 -6.6145827,9.26042 -3.96875,-9.26042 1.322917,-7.9375 6.614583,0 14.552084,6.61458 6.614583,21.16666 z"
           style="opacity:1;vector-effect:none;fill:#8f9bda;fill-opacity:1;stroke:#2d3c81;stroke-width:1.28571439;stroke-linecap:butt;stroke-linejoin:miter;stroke-miterlimit:4;stroke-dasharray:none;stroke-dashoffset:0;stroke-opacity:1" />
      </g>
      <path
         style="opacity:1;vector-effect:none;fill:#8f9bda;fill-opacity:1;stroke:#2d3c81;stroke-width:1.28571439;stroke-linecap:butt;stroke-linejoin:miter;stroke-miterlimit:4;stroke-dasharray:none;stroke-dashoffset:0;stroke-opacity:1"
         d="m 197.86406,100.0125 c 0,0 4.29282,-8.598953 5.32902,-23.151043 1.0362,-14.55208 -7.40141,-20.50521 -7.40141,-20.50521 0,0 -8.43761,5.95313 -7.40141,20.50521 1.03619,14.55209 5.32901,23.151043 5.32901,23.151043 z"
         id="path842"
         inkscape:connector-curvature="0"
         sodipodi:nodetypes="cscscc" />
    </g>
  </g>
  <g
     inkscape:groupmode="layer"
     id="layer6"
     inkscape:label="colors"
     style="display:inline">
    <rect
       style="display:inline;opacity:1;fill:#2d3c81;fill-opacity:1;stroke:none;stroke-width:0.5;stroke-miterlimit:4;stroke-dasharray:none;stroke-dashoffset:0;stroke-opacity:1"
       id="rect1492"
       width="42.333332"
       height="42.333332"
       x="-156.10416"
       y="-0.52916664" />
    <rect
       style="display:inline;opacity:1;fill:#5266c3;fill-opacity:1;stroke:none;stroke-width:0.5;stroke-miterlimit:4;stroke-dasharray:none;stroke-dashoffset:0;stroke-opacity:1"
       id="rect1458"
       width="42.333332"
       height="42.333332"
       x="-127.00001"
       y="2.1166666" />
    <rect
       y="39.158337"
       x="-127"
       height="42.333332"
       width="42.333332"
       id="rect1488"
       style="display:inline;opacity:1;fill:#6476c9;fill-opacity:1;stroke:none;stroke-width:0.5;stroke-miterlimit:4;stroke-dasharray:none;stroke-dashoffset:0;stroke-opacity:1" />
    <rect
       style="display:inline;opacity:1;fill:#7282ce;fill-opacity:1;stroke:none;stroke-width:0.5;stroke-miterlimit:4;stroke-dasharray:none;stroke-dashoffset:0;stroke-opacity:1"
       id="rect1460"
       width="42.333332"
       height="42.333332"
       x="-105.83332"
       y="17.991674" />
    <rect
       y="-40.216667"
       x="-127"
       height="42.333332"
       width="42.333332"
       id="rect1490"
       style="display:inline;opacity:1;fill:#3b4fab;fill-opacity:1;stroke:none;stroke-width:0.5;stroke-miterlimit:4;stroke-dasharray:none;stroke-dashoffset:0;stroke-opacity:1" />
    <rect
       style="display:inline;opacity:1;fill:#8f9bda;fill-opacity:1;stroke:none;stroke-width:0.5;stroke-miterlimit:4;stroke-dasharray:none;stroke-dashoffset:0;stroke-opacity:1"
       id="rect1462"
       width="42.333332"
       height="37.041668"
       x="-105.83332"
       y="-13.758333" />
  </g>
</svg>
